<svg id="Layer_1" data-name="Layer 1" xmlns="http://www.w3.org/2000/svg" viewBox="0 0 985.51 222.67"><defs><style>.cls-1{fill:#fff;}</style></defs><path class="cls-1" d="M189.78,470.67a14.5,14.5,0,0,1-3.61-.45,17.51,17.51,0,0,1-3.57-1.31,7.7,7.7,0,0,1-2-1.55,2.54,2.54,0,0,1-.22-.23l-1-.16-.65-1.21a7.61,7.61,0,0,1-.79-3.44,6.4,6.4,0,0,0-.07-.8c-.13-.27-.3-.43-1-1-.42-.34-.89-.72-1.4-1.22l-.5-.48-.19-.08c-1.22-.49-3.08-1.25-3.61-3.25a3.78,3.78,0,0,1,.44-3,3.31,3.31,0,0,1,1.49-2.76l.17-.12c-.26-1.79,1-3.4,1.85-4.46a8.84,8.84,0,0,1,2.69-4.11c.17-.16.33-.31.47-.46a3.26,3.26,0,0,1,.49-2,3.53,3.53,0,0,1,.39-1.8,3.2,3.2,0,0,1,.5-.7l-.25-1.4,1.63-1a3.18,3.18,0,0,0,.84-.65,3.34,3.34,0,0,1-.47-.51,3,3,0,0,1-.56-1.46h0l-.15-.09-.84.27-1-1.92a3.17,3.17,0,0,1-2.28-1.72,3.08,3.08,0,0,1-.16-2.46c-.59-1.61.55-3.06,1-3.63l-.17-1.18c-.56-.9-.66-2.19.75-3.95.2-.25.48-.56.76-.88a9.85,9.85,0,0,0,1.12-1.38l.32-.8a5.7,5.7,0,0,1,1.87-1.64,4.82,4.82,0,0,0,1.31-1.5c.2-.32.41-.65.66-1s.64-.86,1-1.35c.58-.73,2-2.46,2-3.11l.13-2-.06-.08a3.69,3.69,0,0,1-.48-2.18,3,3,0,0,1-.06-1.8c-1.09-2.38.81-4.76,2.82-7.28l.16-.2a3.55,3.55,0,0,1,.85-2.62,2.91,2.91,0,0,1-.13-1l-1.59.6-.06-3.24a3.37,3.37,0,0,1-.35-.95,2.72,2.72,0,0,1-.95-.13l0,0a10.36,10.36,0,0,1-2.59,1.65l-.65.26c-2.69,1.08-5.76,2.35-7.71.39l-1-1a6.78,6.78,0,0,1-1.72.27c-1.25.82-3.66,2.36-5.66,1.41.1.16-.82.72-1.32,1s-.75.46-1.07.63a4.94,4.94,0,0,1-2.95.59,4.47,4.47,0,0,1-2.22,1.07,4.51,4.51,0,0,1-3.24,1.27l-.2.13c-1.52,1-3.43,2.25-5.41,1.54a3.57,3.57,0,0,1-2.19-2.29l-.13-.4a7.79,7.79,0,0,1-3.17.68h0a5.61,5.61,0,0,1-3.2.92,6.39,6.39,0,0,1-1.54.29l-.7,1-1.87-.06a3.35,3.35,0,0,1-1.76-.12l-.9.16c.09,0-.31.18-1.19.85a9.2,9.2,0,0,1-4.62,1.66,4.77,4.77,0,0,0-1.32.29,3.76,3.76,0,0,1-3.7.5l-1.24.15a19.82,19.82,0,0,1-3.21.22,28.44,28.44,0,0,1-8.33-1.53c-.62-.19-1.22-.34-1.81-.49-2.21-.55-4.7-1.18-6.79-3.53a4.75,4.75,0,0,1-1.3-3.88c.34-2.53,2.64-4,4.16-5l1-.43c.12-.1.71-.8,1.06-1.21a9.88,9.88,0,0,1,2.84-2.59A40.27,40.27,0,0,0,118,374c1.42-1.11,2.83-2.23,4.3-3.22a30.88,30.88,0,0,1,2.9-1.68,16.91,16.91,0,0,0,3.59-2.3l.7-.7,1-.1c.15,0,.19,0,.75-.56a8.74,8.74,0,0,1,2.63-1.84,16.75,16.75,0,0,0,3.17-2.09,27.25,27.25,0,0,1,3-2.11,9.7,9.7,0,0,1,1.79-.73l.15-.05-.24-.66,2.17-1.14c.54-.28,1.07-.53,1.59-.78a9.51,9.51,0,0,0,2.88-1.76l.81-.82h1.16a9.64,9.64,0,0,0,2.66-.74,6.64,6.64,0,0,1,4-.82h.25l1.29-.38,1.27-.39a28.69,28.69,0,0,1,8.58-.69c.56,0,1.12,0,1.68,0h1.32a4.21,4.21,0,0,1,3.65-.78,4.71,4.71,0,0,0,2.44-.43,12.4,12.4,0,0,1,3-.63c1-.1,1.17-.15,1.41-.38,1.37-1.31,2.1-2,2.29-2.93l.21-1,.67-.53c-.15,0-.14-.11-.15-.27a6,6,0,0,1,1-4,6.63,6.63,0,0,1,1.26-3.8,6.83,6.83,0,0,0,.79-1.49,12.74,12.74,0,0,1,1.52-2.66,20.43,20.43,0,0,0,3.31-5.39,10.55,10.55,0,0,1,2.77-3.66,11.88,11.88,0,0,0,.94-.94,14.11,14.11,0,0,1,3.91-5.25,8.89,8.89,0,0,0,3.23-2.8,14.63,14.63,0,0,1,3.9-3.49,13.3,13.3,0,0,0,2.06-1.59,14,14,0,0,1,3.59-2.46c.53-.28,1.07-.56,1.62-.92a6.13,6.13,0,0,1,3.33-1c.21,0,.21,0,.21.07a5.79,5.79,0,0,1,3.39-1.95,4.44,4.44,0,0,0,.64-.19,18,18,0,0,1,8.35-2.56l1-.07.38-.54.79-.23a4.15,4.15,0,0,1,.56-.23c1.18-1.4,3.25-1.58,4.37-1.68a6.2,6.2,0,0,0,.83-.09c1.91-.79,4.18-.62,6.17-.47l1.24.08.3-.11a7,7,0,0,1,2.56-.51,4.06,4.06,0,0,1,2.28-.83,28.23,28.23,0,0,1,10.14.51l.74-.07a6.67,6.67,0,0,1,3.11.17,4.89,4.89,0,0,0,.67.14,7.81,7.81,0,0,1,2.24.66,37.48,37.48,0,0,1,6.14,1,29,29,0,0,0,6,.86h0l.62.07a17.07,17.07,0,0,0,3,.46c1.89-1.37,4.25-.53,5.71,0a8.63,8.63,0,0,0,1.12.36l.22,0a3.68,3.68,0,0,1,3.36-1,3.64,3.64,0,0,1,4.08.86,4.66,4.66,0,0,1,3.17,1.17h0c.07,0,1.23.44,5.79.05,3.57-.3,7.23-.88,10.77-1.45l1.74-.28a41.9,41.9,0,0,1,8.7-.9l1.45.09a6.88,6.88,0,0,0,2.25,0,19.25,19.25,0,0,1,5.49-1.13,3.35,3.35,0,0,0,1.26-.35c.38-.16.79-.31,1.25-.46l.22-.07a6.65,6.65,0,0,1,1.22-1.58,17.07,17.07,0,0,1,2.16-1.66c.42-.29.83-.57,1.18-.85h0a3,3,0,0,1,1.15-1.79,5.48,5.48,0,0,1,3.16-3c.2-.1.4-.19.57-.29a3.52,3.52,0,0,1,.85-1,4.13,4.13,0,0,1,.8-1.17c.94-1.34,2.73-1.64,3.8-1.82a5.42,5.42,0,0,1,2.62-.05,4.38,4.38,0,0,1,1.77-.69c.65-.1,1.09-.47,1.93-1.24.34-.31.69-.62,1.06-.92l-.11-1,.88-.7a5.25,5.25,0,0,1,1.48-2.11,4,4,0,0,1,2.89-3.21c-.08-.11.37-.72,1.3-1.27.18-.1.34-.2.49-.27l.1-1.46,1.28-.74c.3-.18.62-.33.93-.49a4.68,4.68,0,0,0,.9-.52l1.87-2.89.61.62.89-.79a9.06,9.06,0,0,1,3.38-1.54,4.23,4.23,0,0,0,1.39-.53l.69-.69,1-.11a7.7,7.7,0,0,0,3.51-1.8,4.85,4.85,0,0,1,3.23-1.63,5.37,5.37,0,0,1,3.26-2.43l.29-.47a5.38,5.38,0,0,1,2.75-2l.68-.82,1.39-.24c.08,0,.37-.18.57-.29a6.25,6.25,0,0,1,3.56-.94l.39-.18a8.69,8.69,0,0,1,3.34-1,4.33,4.33,0,0,1,2.14-.42,8.4,8.4,0,0,1,1.06.12q.17,0,.18.06c1.28-.95,3.39-2.12,5.45-1.35a3.92,3.92,0,0,1,1,.55h.25l.69.09a4.6,4.6,0,0,1,.94.37,3.58,3.58,0,0,1,3.8.71,3.69,3.69,0,0,1,2.78,1.1c2.19-.37,3.95,1.08,5.28,2.18a8.18,8.18,0,0,0,1.7,1.2c5-.69,8.23,8.26,8.36,8.65l.14.87a3.7,3.7,0,0,0,.38,1,7,7,0,0,1,.63,5.15l.12.07a5.22,5.22,0,0,1,3.11,3.81h0c.15,0,1.31.24,1.94.37a9.84,9.84,0,0,1,3.18,1.05,5,5,0,0,1,3.81,1.85h0a12,12,0,0,1,1.79.87,6,6,0,0,0,1.53.67,5.85,5.85,0,0,1,3.83,2.68c1.56,2.64.68,5.87,0,8.23a23,23,0,0,1-1.87,5.11,8.33,8.33,0,0,1-2.27,2.57,5.49,5.49,0,0,0-.87.81,33,33,0,0,0-2.24,4l-.42.83a10,10,0,0,1-1.38,2.64,6.38,6.38,0,0,0-.88,1.61c-.84,2.73-2.25,7.28-6.36,8.66a11.1,11.1,0,0,1-1.6.39c-.61.13-.64.13-.95.4a5.52,5.52,0,0,1-5.79.84l-.38-.13a24.1,24.1,0,0,1-4.38-.19,4.31,4.31,0,0,1-3.62-.31c-.27,0-.67,0-1,0,0,.12-.05.25-.08.37a3.6,3.6,0,0,1,0,2,4.88,4.88,0,0,1-1.66,2.45c.46,1.31.73,3-.65,4.19l-.2.17a5.41,5.41,0,0,0,.18.72c.75,2.42-.24,3.67-.89,4.2a3,3,0,0,1-.52.33c-.12.25-.25.49-.38.73,0,0,0,0,0,0a19.27,19.27,0,0,1,.9,2.17,6.17,6.17,0,0,1,0,2.64c0,.26-.1.52-.11.74l-.05,1.13h0c.25.92.76,2.85-.74,4.23a3,3,0,0,1-.54.42,4.24,4.24,0,0,1-.95,1.22,3.15,3.15,0,0,1-.58,1.5,5.78,5.78,0,0,0-.13.69,3.91,3.91,0,0,1-1.85,3.18l-.12.07a4.53,4.53,0,0,1,.06,3.33,3.44,3.44,0,0,1,.29,2.91,3.21,3.21,0,0,1-.34,3.26l-.26.29a23,23,0,0,0,.46,3.25,3.5,3.5,0,0,1-.09,1.87,3.26,3.26,0,0,1-.89,3.15,3.1,3.1,0,0,1-1.45.78,20,20,0,0,1-.89,4.59,4.76,4.76,0,0,1-.34,1.59,4.68,4.68,0,0,1-.87,3.63,3.47,3.47,0,0,1-.71.67,3.13,3.13,0,0,1-1,1v.19L410,381.82a5.39,5.39,0,0,1-.63.74l-.81.81h-1.14a7.53,7.53,0,0,1-1.15-.13l-1.12.32a3.37,3.37,0,0,1-1,1.23,3.59,3.59,0,0,1-1.29,1.65,4.17,4.17,0,0,1-.47.28,3.29,3.29,0,0,1-1.24,1.11,3.08,3.08,0,0,1-1.17.34,3.42,3.42,0,0,1-.77.59,3.29,3.29,0,0,1-2.22,1.76,3.85,3.85,0,0,1-1.37,2.84,3.45,3.45,0,0,1-1.87.7,3.65,3.65,0,0,1-1.3,3.32c0,.06,0,.12,0,.18a3.16,3.16,0,0,1-1.46,3.11,3,3,0,0,1-1.16.4l-.14.22-1.12,2a3.4,3.4,0,0,1-.26.5l-.72,1.33-.28-.28a3.28,3.28,0,0,1-1.81,2.64,11.47,11.47,0,0,1-1.18,3.22,12.48,12.48,0,0,0-.56,1.23,9.77,9.77,0,0,0-.3,2.91,20,20,0,0,1-.16,2.72,16.53,16.53,0,0,0,0,3.44,18.86,18.86,0,0,1-.16,5.28,8.74,8.74,0,0,0,.08,2.18,11.21,11.21,0,0,1-.16,3.59,10.31,10.31,0,0,0-.17,1.36c0,.9,0,1.78,0,2.64a30.85,30.85,0,0,1-.27,5.91c-.35,2.1.3,3.09,2.24,5.66a5.28,5.28,0,0,0,.86.89,13.68,13.68,0,0,1,1.1,1.08,5.31,5.31,0,0,1,2.78,0,10.48,10.48,0,0,1,4.64,3.88,3.52,3.52,0,0,1,1.65,2.86c.6.88,2.9,4.63,1.79,8a5.34,5.34,0,0,1-3.46,3.39,18.69,18.69,0,0,0-3.17,1.49,9,9,0,0,1-5.07.95,10.84,10.84,0,0,0-1.14,0l-9.48.32c-5.28.18-10.79.39-16.54-2.79a9.41,9.41,0,0,1-3.38-2.69,5.73,5.73,0,0,0-.62-.45,8.18,8.18,0,0,1-2.28-2.08l-.38-.07c-2.35-.44-3.37-1.51-3.79-2.58a4.34,4.34,0,0,1-1.21-1.63,3,3,0,0,1-1.32-2.45l-1.15-2.15a.31.31,0,0,1-.06-.13,3.45,3.45,0,0,1-.6-.23,3.82,3.82,0,0,1-1.34-1.16l-1-.26a2.84,2.84,0,0,1-.74-.67,3.3,3.3,0,0,1-.85-.52,3.06,3.06,0,0,1-.46-.5,3.71,3.71,0,0,1-1.25-.89l-.14-.15-1.09.18-1-1.14a4.5,4.5,0,0,1-1.44-3.34l-1.68.19-.93-1.46a4.75,4.75,0,0,1-.73-2.05l-.49.19v-3.44a4,4,0,0,1-.47-1.3l-.26-1.69.66-.48-.47-1.05c-1.66-1-1.47-3-1.39-3.86a4.86,4.86,0,0,0,0-.54,3.73,3.73,0,0,1-.86-1.66,4.73,4.73,0,0,1,.06-2.56,4.18,4.18,0,0,1-.36-1.86,12.23,12.23,0,0,1,.17-1.6l-.68.17v-3.55a11.71,11.71,0,0,1,0-2.24,3.16,3.16,0,0,1-.51-1.87V414a3.68,3.68,0,0,1-1.52-2.87l-.12-1,.16-.22-.12-.07L324.05,411l-2-2a7.56,7.56,0,0,1-1.23-1.55l-.18.14-1.88,2.8L316.4,408a7.47,7.47,0,0,1-.54-.62l-1.2-.35a4.39,4.39,0,0,1-2.62-3.15l-1.16.7-.15-.9-.92,1.67-2.61-2.6a5.48,5.48,0,0,1-.8-1L303,402.94l0-2.78-.14,0-.68,1-2.32-.27a3.23,3.23,0,0,1-1.49-1l-2.23.78L295,398.66a5.3,5.3,0,0,1-.41-1.07l-1.39,2.8-2.73-2.69a5.31,5.31,0,0,1-.8-1l-.27,0-1.53,0-.29-.34-1.63.68L285.5,395a3,3,0,0,1-.86-.53l-.11,0-3,1,0-1.1a3.27,3.27,0,0,1-.56-.33,6.65,6.65,0,0,1-1.08.4c-.08.13-.15.26-.23.37l-1.87,2.87-2.42-2.41a4.28,4.28,0,0,1-1.1-1.83h-.55l-.77-1.52a2,2,0,0,1-.12-.27l-.11.11-.94.94-1.71,0-.41-.06-.09-1.79-1.81,2.88-2.46-2.43-.1-.09H265a3.8,3.8,0,0,1-1.58.3l-1.65-.08-.93-1.49-.31,0-.14.23a9.49,9.49,0,0,1-1.77,2.17,4.82,4.82,0,0,1-1.7,2.1l-1.19.9-.06,0a7.46,7.46,0,0,1-4.1,3.24,4.28,4.28,0,0,1-.38.57,7,7,0,0,1-2.19,2.15,3.18,3.18,0,0,1-1.29,1.3,2.74,2.74,0,0,1-.53.23,2,2,0,0,1-.15.45,4.79,4.79,0,0,1-2.65,2.78,4.1,4.1,0,0,1-1.92,2.77l-.14.08a5.59,5.59,0,0,1-1,1c-.47,1.47-1.91,5.31-4.18,6l-1,.54-1.34,1a3.83,3.83,0,0,1-.83.37,3.11,3.11,0,0,1-.92,2.63,3,3,0,0,1-1.14.7l-1,2.18-1.12-.41a3.57,3.57,0,0,1-2.91,1,4.19,4.19,0,0,1-2.46.32v.1l-1.34.84a3.55,3.55,0,0,1-2.65.55c-.41.44-.72.71-.73.72l-1.07.85a3.52,3.52,0,0,1-1.23.78,5.7,5.7,0,0,1-.4.65,16,16,0,0,0-1.37,2.6,19.75,19.75,0,0,1-2.08,3.77l-.8.72a4.31,4.31,0,0,1-.66,2.06,8.11,8.11,0,0,1-1.76,1.94c-.18.16-.45.4-.53.49-1.29,2.19-2.26,4-1.9,5.61l.1,1.54a18.55,18.55,0,0,0,.14,2.21l.5,0a5.44,5.44,0,0,1,4.45,2.61,4.67,4.67,0,0,1,.56,2.66,7.16,7.16,0,0,1-.62,9l-.56.51c-2.51,2.45-4.6,4.23-8.7,4.85a62.51,62.51,0,0,1-9.15.77A22.72,22.72,0,0,1,189.78,470.67Zm-6.21-8.14a10.48,10.48,0,0,1,1,.91,4.9,4.9,0,0,0,.58.53,13.28,13.28,0,0,0,2.42.87,13.08,13.08,0,0,0,6.15-.27l.59-.07a57,57,0,0,0,8.64-.71c2.41-.36,3.46-1.2,5.65-3.34l.74-.67.19-.17h0l-.12-.69a5.9,5.9,0,0,0-.07-.64,3.72,3.72,0,0,1-1.25-3.08,2.41,2.41,0,0,0-.62,0c-2.24.31-3.67-.7-4.41-3a15.69,15.69,0,0,1-.6-4.62l0-.94c-.81-3.4,1.26-6.9,2.63-9.22a7.42,7.42,0,0,1,1.65-1.82,5.37,5.37,0,0,0,.63-.61,3.15,3.15,0,0,0,.18-.55,5.5,5.5,0,0,1,1.82-3,19.1,19.1,0,0,0,1.25-2.44,20.49,20.49,0,0,1,1.91-3.51,4.27,4.27,0,0,1,2.55-2.58,3.41,3.41,0,0,1,1.33-1c.25-.29.58-.7.81-1l-.05-4.05,3.22,1.74a3.94,3.94,0,0,1,2.87-.45l.39.09.11-1.84,1.5.54-.13-1.93,1.44.5-.12-1.12,2.46.66a1,1,0,0,0,0-.1l.16-3.71,2.56.88a4.87,4.87,0,0,1,.63-.55l.4-.51.7-.37a6.91,6.91,0,0,1,1.72-.41,14.7,14.7,0,0,0,1-2.24,4.16,4.16,0,0,1,1.69-2.43l.28-2.86,1.55.46a4.48,4.48,0,0,1,.46-.71,5.12,5.12,0,0,1,1.77-1.37c.12-1.33.43-3,2.05-3.79l-.09-2,2.82.69.1-.15a6.49,6.49,0,0,1,2.94-2.58l1-.18a12.43,12.43,0,0,0,1-2l0-5.09,3.31,2.17.12-.1a4.77,4.77,0,0,0,.71-1,7.38,7.38,0,0,1,2.81-2.85l2.3-1.17.29.48a2.73,2.73,0,0,1,1.89.12l1.41.58-.08-.63,4,1.27a2.63,2.63,0,0,1,2,.36,3.78,3.78,0,0,1,3.75-1.47,3.12,3.12,0,0,1,1.78,1.26l.42.19a3.77,3.77,0,0,1,.52.41h.2l2.76,0,0,2.76v0c.38-.14.66-.22,1-.31l1.66-.75.35.1.26-.08.29.27,1.53.52,1.69,0,.88-1.4,1.84,2.84.11-.17,2.33,1,.29.14.23-.34.9.14,2.25-2.31.58,1.41,1.38-.7,1.22,2.59a5,5,0,0,1,.3.9h.66v-1.35l4.24,2.48a2.58,2.58,0,0,1,.31.22l.08-.72L307.4,394a4.91,4.91,0,0,1,2.79,2.3,4.11,4.11,0,0,1,1.59.58l.54.29h.36a2.8,2.8,0,0,1,.28.06,2.86,2.86,0,0,1,2.23.75h1.53l.35,2.38c0,.24.06.49.09.73a4.1,4.1,0,0,1,.53.14l.23-1.26h2.32a3.27,3.27,0,0,1,2.39,1l2.66-1.08.09,2.85a3.43,3.43,0,0,1,2.88,1.93,2.9,2.9,0,0,1,.86.67,7.84,7.84,0,0,1,1.7,2.87h1.91v2.77a11.31,11.31,0,0,1-.21,2.09,7.59,7.59,0,0,0-.14,1.08,5.07,5.07,0,0,1,.48,1.66,3.44,3.44,0,0,1,.76,1.08h.61l-.21,1.88v4.35l-.61-.22,0,.44a3.89,3.89,0,0,1,.48,2.06v.47a4.1,4.1,0,0,1,.62,2,17.94,17.94,0,0,1,.08,1.82,18.41,18.41,0,0,1,1.8,3.91h1.44l-.06,2.84a7,7,0,0,1-.15,1.3l1.92,1.16v1.35h1.44l-.23,2.4h2.43L343,445h2l-.06.64h.36l.14.78,1.95-.22.07,1.69.22.06,1.45-1.73,2.07,4a6.53,6.53,0,0,1,.93,4.1,4.79,4.79,0,0,1-.22.81c.08.13.16.26.22.38l2,.61-.16,1a4.73,4.73,0,0,1,3.14,2.12,3.18,3.18,0,0,0,.88.72,7.3,7.3,0,0,1,2.07,1.87,5.82,5.82,0,0,0,1.5,1c4.13,2.28,7.91,2.31,13.67,2.1l9.47-.32c.53,0,1,0,1.52,0a4,4,0,0,0,2.17-.24,23.94,23.94,0,0,1,4.08-1.89,6,6,0,0,0-1.23-3.17,4.07,4.07,0,0,1-.46-.83l-2.37-.11.78-2.41a7.32,7.32,0,0,0-1.28-1.07,3.83,3.83,0,0,1-5.08-1.44,6.77,6.77,0,0,0-.76-.75,10.89,10.89,0,0,1-1.45-1.51c-2.12-2.81-4.17-5.53-3.42-10.09a25.46,25.46,0,0,0,.2-4.88c0-1,0-1.92,0-2.91a14.46,14.46,0,0,1,.25-2.15,6.48,6.48,0,0,0,.16-1.63,13.6,13.6,0,0,1,0-4.36,14.41,14.41,0,0,0,.05-3.74,21.56,21.56,0,0,1,0-4.61,14.6,14.6,0,0,0,.11-2,14,14,0,0,1,.64-4.77,18.77,18.77,0,0,1,.8-1.77,5.56,5.56,0,0,0,.72-1.92,5.86,5.86,0,0,1,1.48-4.09l.32-.33,0-3.14,1.42.39,0-4.26,2.34,1.3v-2.1l1.63.47a3.5,3.5,0,0,1,.94-1.06,4.4,4.4,0,0,1,.9-2.52,4.06,4.06,0,0,1,2.62-2.47,4.53,4.53,0,0,1,2.58-3.12l.06,0a3.07,3.07,0,0,1,.74-1,2.8,2.8,0,0,1,.73-.51l0-2.81,2.13.69.07-.57,1.64.2.2-.25a4,4,0,0,1,1.31-2.61l.23-3.25,2.72,1.05-.45-.69,2.44-.48a3.3,3.3,0,0,1,1.81-2.08l.87-.45.15-.52a19.47,19.47,0,0,0,.83-6.5v-3.75l2.12.64a22.32,22.32,0,0,1-.24-4.79l.23-3.14h.07a4.71,4.71,0,0,1-.09-1.34,4.61,4.61,0,0,1,.26-1.25,4.45,4.45,0,0,1-.35-2.51,5,5,0,0,1,.77-2.24l.07-.12,0-4,1.86.84c0-.06.05-.11.07-.17-.3-1.35-.52-2.79.45-4l.08-.1-1.3-3.3,3,1a3.57,3.57,0,0,1,.1-.35c0-.37.09-.73.15-1.06a5.21,5.21,0,0,0,.1-.69,11.46,11.46,0,0,1-.64-1.09l-.9-.67.12-1.53a6.48,6.48,0,0,1,1.08-2.59c.31-.57.65-1.17.78-1.48l.49.2a12.27,12.27,0,0,1-.35-5l.29-2.1a2.48,2.48,0,0,1-.06-.54l-.13-2.69,1.89-.15.27-1.29a3.43,3.43,0,0,1,.13-1.84l.36-.69c1.11-2.08,2.48-2.46,4.37-2.48a10.57,10.57,0,0,1,4.44.53,5.58,5.58,0,0,1,1.93-.14,20.56,20.56,0,0,0,3.82.13l.4,0,.39.1a11.76,11.76,0,0,1,1.14.33c.25.08.6.19.72.21a5.54,5.54,0,0,1,3.24-1.6c.27-.06.56-.11.92-.22,1.39-.47,2.3-3.43,2.79-5a11.37,11.37,0,0,1,1.54-3A7.08,7.08,0,0,0,447,301l.6-1.28A35.62,35.62,0,0,1,450.3,295a9.43,9.43,0,0,1,1.83-1.85,4,4,0,0,0,.91-.9,17.24,17.24,0,0,0,1.33-3.64c.34-1.24,1-3.66.64-4.25a12,12,0,0,1-3.28-1.34,6.24,6.24,0,0,0-1.28-.59l-.77-.37a6.16,6.16,0,0,1-1-.89,5.39,5.39,0,0,1-3-1.18c.09.11-.65-.05-1.13-.15-1.94-.4-5.46-1.14-6.23-4.56l-.37-.2c-1-.57-4.2-2.3-2.81-6.4.11-.31.09-.46-.34-1.42a8.7,8.7,0,0,1-.83-2.75c-.72-1.93-2.16-4.25-2.89-4.58-2.1.29-3.94-1.26-5.32-2.4-.34-.28-.81-.67-1.13-.88a5,5,0,0,1-3.94-1.09,4.12,4.12,0,0,1-2-.58l-.14-.09a3.28,3.28,0,0,1-3.39-.42l-3.06,1.05-.18-1.06A5.18,5.18,0,0,1,408,255a7.54,7.54,0,0,1-2.49.35c.15.07-.39.35-.86.56a6,6,0,0,1-3.14.69c-.08.05-.29.17-.46.25a9.13,9.13,0,0,1-1.42.66,6.86,6.86,0,0,1-1.89,1c-.7.87-1.57,2.32-3.48,2.66a5.17,5.17,0,0,1-1.84,1.82,5.9,5.9,0,0,1-2.17.68,13.23,13.23,0,0,1-6,3.3,9.57,9.57,0,0,1-3.08,1.32,4.92,4.92,0,0,0-1.4.52c-.22.18-.6.54-1,.91a17.82,17.82,0,0,1-1.54,1.32,7,7,0,0,1-2.2,1.72,3.86,3.86,0,0,1-2.34,2.69l-.66.36a4.07,4.07,0,0,1-1.68,1.47,5.4,5.4,0,0,1-.64,1.67l-1.11,1.33c.11,1.63-1.26,2.58-2.06,3.13a12.85,12.85,0,0,0-1.09.92,8.88,8.88,0,0,1-4.87,2.62,3.16,3.16,0,0,1-3.77.67l-.56.08.5,2.17-2.64,0a6.68,6.68,0,0,1-1.94,1.39l.86,1.58-2.85,1.17a13.6,13.6,0,0,1-3.15,2.69,11.81,11.81,0,0,0-1.5,1.14c-.67,1.13-1.6,2.78-3.89,3l-.54.21a8.6,8.6,0,0,1-3.08.75,13.91,13.91,0,0,0-4,.86,11.2,11.2,0,0,1-4.43.28c-.51-.05-1-.07-1.5-.08a46.9,46.9,0,0,0-7.29.82l-1.5.25c-3.91.63-7.68,1.23-11.44,1.54-5,.44-7.92.1-9.66-1.19a5.3,5.3,0,0,1-2.87-.91,4.74,4.74,0,0,1-.89.08,4.45,4.45,0,0,1-3.52.93,10,10,0,0,1-3.17-.71c-.3-.11-.74-.27-1.06-.36-1.76,1.07-4.25.7-6.69.17a35.86,35.86,0,0,1-6.89-1c-2-.45-3.89-1.09-5.89-.86h-1.39l-.5-.66L265,301a12.61,12.61,0,0,1-1.46-.34h0l-.62.07a7.59,7.59,0,0,1-2.9-.08,23.59,23.59,0,0,0-8.22-.34,5,5,0,0,1-2.75.85,1.75,1.75,0,0,0-.66.17,9.46,9.46,0,0,1-1.2.38l-.35.09h-.36c-.61,0-1.27-.06-2-.1a10.43,10.43,0,0,0-3.77.11,8.37,8.37,0,0,1-2.33.45l-.67.06a3.07,3.07,0,0,1-2.09,1.4,5.25,5.25,0,0,1-3.53,1.22l-.68.05a12.78,12.78,0,0,0-6.2,1.88,7.53,7.53,0,0,1-1.9.71c-.19,0-.39.09-.57.15a5.15,5.15,0,0,1-4.16,1.91c-.21,0-.53,0-.63.06a19.87,19.87,0,0,1-2.06,1.21,8.86,8.86,0,0,0-2.24,1.46,19.46,19.46,0,0,1-2.85,2.25,10.09,10.09,0,0,0-2.53,2.14,14.32,14.32,0,0,1-4.83,4.29c-.09.12-.46.61-.83,1.13l.21.21-1.28,1.89a13.45,13.45,0,0,1-2,2.26,6,6,0,0,0-1.46,1.74A25.8,25.8,0,0,1,194,335a8.35,8.35,0,0,0-.82,1.54,12.77,12.77,0,0,1-1.44,2.56,6.7,6.7,0,0,1-1.23,3.76c.05,0,.07.27.08.49a5.55,5.55,0,0,1-1.09,4,11.87,11.87,0,0,1-3.45,4.73,7.36,7.36,0,0,1-4.9,2.08,6.76,6.76,0,0,0-1.32.21,11.08,11.08,0,0,1-5.42.83,5.32,5.32,0,0,1-1.3.68l-.52.18-.53,0c-.62,0-1.25,0-1.83,0s-1.28,0-1.92,0a25.66,25.66,0,0,0-6.82.47l-1.2.36c-.62.19-1.24.38-1.87.55l-.69.09-.85,0a5.27,5.27,0,0,0-.91,0,13.7,13.7,0,0,1-4.36,1.44,16.72,16.72,0,0,1-3.68,2.17l-.17.07c-.82,1.71-2.64,2.31-4.1,2.8-.31.1-.6.19-.8.28a23.93,23.93,0,0,0-2.37,1.68,20.1,20.1,0,0,1-4.36,2.8,3.43,3.43,0,0,0-1,.77,6.83,6.83,0,0,1-3,1.86,25.38,25.38,0,0,1-4.23,2.66c-.86.46-1.7.91-2.42,1.39-1.35.91-2.65,1.95-4,3a46.62,46.62,0,0,1-7.25,5,7.36,7.36,0,0,0-1.15,1.22,8.44,8.44,0,0,1-3.6,2.92c-.34.22-.73.49-1,.73a8.37,8.37,0,0,0,3.57,1.44c.69.17,1.4.35,2.12.57a22.81,22.81,0,0,0,6.82,1.28,10.57,10.57,0,0,0,2.36-.18c.66-.09,1.35-.17,2.11-.22a5.17,5.17,0,0,1,1.14.07,9.58,9.58,0,0,1,2.87-.77,4.41,4.41,0,0,0,2.09-.58,10.56,10.56,0,0,1,3.12-1.77l.28-.43,1.38-.41a3,3,0,0,1,2,.34,4.54,4.54,0,0,1,2.38-.68,5.32,5.32,0,0,1,1.25-.27l0-2.28,3.69,1.23a2.81,2.81,0,0,0,2.91-1.42c.05-.06,4.5-6.67,8-6.7l2.77,0,0,2.77a6.44,6.44,0,0,1-1.69,4.63,2.48,2.48,0,0,1,.06.54,3.9,3.9,0,0,1,1.94-.7,2.91,2.91,0,0,1,1.44-.84,5.39,5.39,0,0,1,2-.17,7.58,7.58,0,0,0,.72-.41c1.38-.84,3.36-2.06,5.53-1.66a9.82,9.82,0,0,0,.87-.55,5.07,5.07,0,0,1,3.16-1c1-.54,2.11-1.1,3.25-1.65l3-1.42.25.58a6,6,0,0,1,1.06.18l3,.72-.58,1.69c.21-.15.45-.34.63-.49,1.2-.94,2.55-2,4.26-2h3.53l-.21.9a3.87,3.87,0,0,1,2.6,2.14,3.16,3.16,0,0,1,.69.34l2.19,1.17.29,2.19a6.11,6.11,0,0,1-.66,2.21,4.24,4.24,0,0,1-.26,2.24V389l.3,0-1,3.12a9.7,9.7,0,0,1-1.83,2.78l-.23.29h.08l-.82,4.18.11.07.39,1.66.66,1-.39.87a4.23,4.23,0,0,1-.49,1.24,3.57,3.57,0,0,1-.26,1.31l-.54,1.26a16,16,0,0,1-2.83,4.56c-.31.4-.6.76-.82,1.08l-.51.78a11,11,0,0,1-1.83,2.37,9.15,9.15,0,0,1-1.18.86l-.17.11a6.77,6.77,0,0,1-.65,1.1l1,.2-1.12,2.68a11.69,11.69,0,0,1-.89,2.25l.49.48-.26,1.38,2.94.95L185,426.93a3.72,3.72,0,0,1,.41.55l.85.27,3.05-.56-1.15,4.8a9.46,9.46,0,0,1-2.47,5.15v.35a3.32,3.32,0,0,1-1.19,2.06l.54.34L184,442.1a10.46,10.46,0,0,1-2.27,2.92c-.74.72-1.19,1.2-1.22,1.58l-.13.72.4,0-1.16,3.42a6.38,6.38,0,0,1-2.4,2.87s0,.05,0,.07a5,5,0,0,1,2.58,2l.61.5a8.24,8.24,0,0,1,2.56,3,7.21,7.21,0,0,1,.56,2.8C183.54,462.18,183.55,462.36,183.57,462.53ZM352.33,462h0Zm1.43-3.5v.05A.11.11,0,0,0,353.76,458.52Zm35.81-3.72-.06.2Zm-217.48-3h0ZM185,435Zm-.3-7.52.05.15A.44.44,0,0,0,184.66,427.46Zm32.47-.26a1.78,1.78,0,0,0,.65,0ZM216,422.67h0Zm-38.89-3a1.55,1.55,0,0,0,0,.34Zm53.36-4-.09,2.33h.09l.67-2.31A1.6,1.6,0,0,0,230.51,415.68Zm3.79-.51h0l-.17-.14Zm7.16-5.9a1,1,0,0,0,0,.14Zm5.93-13.07h0Zm15.92-6.57,0,0ZM404.4,384v0Zm-247.25-1.16,13-1.06.18.08Zm230.69-.28h0Zm16.5-17.27v0Zm4.57-24.94-.31.39A2.64,2.64,0,0,0,421.88,339.32Zm-3.74-11.12L420,329l1.32-2.27a4.24,4.24,0,0,1-1.57-.39,2.34,2.34,0,0,0-.56.3A2.44,2.44,0,0,0,418.14,328.2Zm2.3-10.58h0ZM427,317Zm-.73-.48h0Zm-5.76-1.11,0,0Zm-202.21-11.1h0Zm79.47-.38h0Zm-2.06-.79a1.9,1.9,0,0,0,.69-.08l-.77-1.16.64-1.35-.83,1.06-.62-.93.43,1.17-.69.89a1.78,1.78,0,0,0,.27.17,2.48,2.48,0,0,0,.55-.7h0a4.38,4.38,0,0,1-.44.74l.16.06.32-.68Zm-8.35-.27s0,0,0,0Zm-21.7-1.77Zm-32.85-1.37v0Zm115.68-7.7.78,2.11a1.7,1.7,0,0,0,.55-.37Zm6.35-3.14c0,.06-.06.11-.08.16A.8.8,0,0,0,354.85,288.91Zm4.24-6.35,0,0Zm34.52-21.28h0Zm29.68-10-.12,0ZM270.09,392.64h0Z" transform="translate(-102.52 -248)"/><polygon class="cls-1" points="454.49 164.14 452.95 164.14 434.71 118.71 416.31 164.14 414.76 164.14 392.29 108.12 400.27 108.12 415.58 146.39 430.96 108.12 438.54 108.12 454 146.39 469.15 108.12 477.05 108.12 454.49 164.14"/><rect class="cls-1" x="517.35" y="108.12" width="7.98" height="55.53"/><polygon class="cls-1" points="579.55 156.49 604.63 156.49 604.63 163.65 571.58 163.65 571.58 108.12 579.55 108.12 579.55 156.49"/><path class="cls-1" d="M756.17,404.49h12.7c18.07,0,22.23-13.77,22.23-20.61,0-11.15-7.09-20.6-22.64-20.6H756.17Zm-8-48.37h21.58c20.52,0,29.56,14.66,29.56,27.76,0,14.25-11.16,27.77-29.48,27.77H748.18Z" transform="translate(-102.52 -248)"/><path class="cls-1" d="M851.27,404.49H864c18.07,0,22.22-13.77,22.22-20.61,0-11.15-7.08-20.6-22.63-20.6H851.27Zm-8-48.37h21.58c20.52,0,29.56,14.66,29.56,27.76,0,14.25-11.16,27.77-29.48,27.77H843.28Z" transform="translate(-102.52 -248)"/><path class="cls-1" d="M965.66,405.05c12.46,0,21.66-9,21.66-21.16s-9.2-21.18-21.66-21.18-21.58,9-21.58,21.18,9.2,21.16,21.58,21.16m0-49.66c18.32,0,29.88,13,29.88,28.5,0,15-11.23,28.49-30,28.49-18.16,0-29.64-13.44-29.64-28.49,0-15.39,11.8-28.5,29.8-28.5" transform="translate(-102.52 -248)"/><path class="cls-1" d="M1088,407.82a48.72,48.72,0,0,1-21.17,4.56c-17,0-29.55-11.89-29.55-28.17s12.86-28.82,29.8-28.82c6.51,0,11.07,1.06,19.78,4.72v8.06a41.38,41.38,0,0,0-20-5.45A21,21,0,0,0,1045.53,384c0,12.37,9.29,21.09,22.47,21.09a39.12,39.12,0,0,0,12.06-2.2V384.3h8Z" transform="translate(-102.52 -248)"/></svg>